<svg height="886" version="1.1" width="886" xmlns="http://www.w3.org/2000/svg" xmlns:xlink="http://www.w3.org/1999/xlink" style="overflow: hidden; position: relative;" viewBox="0 0 1000 1000" preserveAspectRatio="xMinYMin"><desc style="-webkit-tap-highlight-color: rgba(0, 0, 0, 0);">Created with Raphaël 2.2.0 and Mapael undefined (https://www.vincentbroute.fr/mapael/)</desc><defs style="-webkit-tap-highlight-color: rgba(0, 0, 0, 0);"></defs><path fill="#7c7c7c" stroke="#ffffff" d="M639.8,557.3L641.6999999999999,563.0999999999999L638.6999999999999,568.0999999999999L633.0999999999999,570.4999999999999L631.6999999999999,573.6999999999999L632.6999999999999,577.6999999999999L638.3,581.3L644.5999999999999,586.5L647.3999999999999,594.1L647.6999999999998,596.6L632.0999999999998,600.4L625.6999999999998,604.5L621.6999999999998,608.4L613.8999999999999,613.5L612.9999999999999,619.2L615.2999999999998,625.2L612.5999999999998,630.1L605.1999999999998,634.1L604.3999999999999,641L606.4999999999999,650.9L603.4999999999999,664.1L603.3999999999999,675.3000000000001L599.0999999999999,681.2L590.5999999999999,688.4000000000001L588.3,698.2L589.5999999999999,706.3000000000001L592.5999999999999,710.9000000000001L598.8,717.3000000000001L600,722.2L596.1,722.7L590.9,721.8000000000001L586.6,722.0000000000001L578.1,728.7000000000002L572.2,723.2000000000002L564.6,714.3000000000002L557.4,716.1000000000001L550.8,722.0000000000001L537.6999999999999,715.4000000000001L528.3,719.9000000000001L521.9,727.0000000000001L513.9,729.8000000000001L496.09999999999997,728.7L494.4,733.6L493.09999999999997,740.8000000000001L490.49999999999994,748.7L490.99999999999994,755.7L490.8999999999999,765.2L485.19999999999993,786.4000000000001L485.0999999999999,793.5000000000001L487.7999999999999,801.0000000000001L488.1999999999999,809.2000000000002L480.09999999999985,829.7000000000002L477.49999999999983,828.6000000000001L475.8999999999998,828.7000000000002L474.0999999999998,829.4000000000002H471.8999999999998L458.8999999999998,819.2000000000002L446.7999999999998,802.1000000000001L459.4999999999998,817.5000000000001L457.9999999999998,810.1000000000001L454.19999999999976,802.9000000000001L448.89999999999975,796.9000000000001L439.89999999999975,788.5000000000001L436.39999999999975,784.3000000000001L434.7999999999997,779.5000000000001L436.9999999999997,774.9000000000001L438.09999999999974,770.8000000000001L436.59999999999974,765.0000000000001L433.89999999999975,759.4000000000001L428.9999999999998,751.7L424.39999999999975,741.5L423.39999999999975,737L423.4999999999998,734L424.9999999999998,730.4L425.2999999999998,728L424.7999999999998,726.8L422.0999999999998,724.5L421.5999999999998,722.2L418.6999999999998,717.3000000000001L417.99999999999983,715.3000000000001L415.8999999999998,701.7L421.99999999999983,698L422.1999999999998,698.5L426.0999999999998,707.1L430.8999999999998,709.6L446.5999999999998,711.8000000000001L454.7999999999998,710.9000000000001L463.19999999999976,711.9000000000001L467.39999999999975,710.4000000000001L470.89999999999975,707.8000000000001L477.39999999999975,705.2L483.69999999999976,700.8000000000001L486.09999999999974,695.3000000000001L489.09999999999974,690.1L494.39999999999975,683L500.4999999999998,676.6L506.9999999999998,671.2L514.3999999999997,664L520.8999999999997,655.6L530.8999999999997,638.6L541.2999999999997,623.5L543.5999999999997,616.9L542.5999999999997,610.1999999999999L541.1999999999997,605.6999999999999L541.2999999999997,600.6999999999999L544.8999999999997,597.1999999999999L551.7999999999997,597.9L557.5999999999997,597.3L569.8999999999996,590L574.3999999999996,584.6L582.2999999999996,578.5L589.9999999999997,574.2L594.1999999999997,569.2L597.7999999999997,562.4000000000001L606.2999999999997,555.6000000000001L624.7999999999997,546.2000000000002L629.0999999999997,547.2000000000002L634.8999999999996,549.4000000000002L639.0999999999997,555.3000000000002Z" stroke-width="1" stroke-linejoin="round" data-id="TWN1156" data-type="area" class="area" style="-webkit-tap-highlight-color: rgba(0, 0, 0, 0); stroke-linejoin: round; cursor: pointer;"></path><path fill="#7c7c7c" stroke="#ffffff" d="M469.4,866L471.4,868.9L471.09999999999997,869.9L468.4,871.6999999999999L463.4,875.9999999999999L462.5,872.6999999999999L463.9,869.9999999999999L466.7,866.3999999999999H468.7ZM596.1,722.7L599.6,729.3000000000001L600.3000000000001,734.2L605.7,735.5L611.2,739.1L608.4000000000001,752.9L608.3000000000001,758.1L606.3000000000001,763.1L596.5000000000001,767.2L591.7000000000002,769.9000000000001L584.1000000000001,771.5000000000001L578.7000000000002,776.0000000000001L576.3000000000002,782.6000000000001L572.6000000000001,789.2000000000002L569.6000000000001,796.7000000000002L568.8000000000002,811.4000000000002L570.0000000000002,817.9000000000002L572.0000000000002,824.0000000000002L573.1000000000003,831.1000000000003V836.5000000000002L575.7000000000003,841.5000000000002L580.3000000000003,847.1000000000003L577.8000000000003,850.9000000000002L572.5000000000003,854.1000000000003L570.4000000000003,858.0000000000002L569.9000000000003,862.5000000000002L572.6000000000004,866.4000000000002L576.0000000000003,868.1000000000003L579.1000000000004,872.5000000000002L579.0000000000003,878.2000000000003L579.6000000000004,884.3000000000003L582.8000000000004,890.2000000000003L587.4000000000004,895.1000000000003L597.6000000000005,899.8000000000003L602.1000000000005,899.5000000000003L603.0000000000005,951.1000000000004L601.4000000000004,958.4000000000003L598.9000000000004,964.4000000000003L595.5000000000005,966.9000000000003L591.5000000000005,970.6000000000004L591.6000000000005,978.9000000000003L593.1000000000005,988.1000000000004L592.7000000000005,994.0000000000003L588.2000000000005,987.2000000000004L581.4000000000005,982.0000000000003L573.6000000000006,978.5000000000003L565.6000000000006,976.6000000000004L565.3000000000006,983.2000000000004L563.0000000000007,985.5000000000003L559.6000000000007,984.7000000000004L555.9000000000007,981.6000000000004L555.7000000000006,979.2000000000004L557.0000000000006,972.2000000000004L551.5000000000006,963.0000000000003L551.0000000000006,960.6000000000004L551.1000000000006,958.5000000000003L551.5000000000006,955.3000000000003V944.5000000000003L552.0000000000006,941.4000000000003L554.5000000000006,937.8000000000003L555.0000000000006,934.8000000000003L535.1000000000006,883.2000000000003L533.5000000000006,880.3000000000003L528.0000000000006,873.5000000000003L523.6000000000006,863.6000000000004L521.6000000000006,860.8000000000004L513.4000000000005,854.3000000000004L508.00000000000057,851.3000000000004L507.1000000000006,847.6000000000004L506.4000000000006,846.3000000000004L502.0000000000006,843.4000000000004L492.0000000000006,838.6000000000005L487.5000000000006,835.5000000000005L482.7000000000006,831.3000000000004L480.1000000000006,829.7000000000004L488.2000000000006,809.2000000000004L487.80000000000064,801.0000000000003L485.10000000000065,793.5000000000003L485.20000000000067,786.4000000000003L490.90000000000066,765.2000000000003L491.0000000000007,755.7000000000003L490.5000000000007,748.7000000000003L493.1000000000007,740.8000000000003L494.4000000000007,733.6000000000003L496.1000000000007,728.7000000000003L513.9000000000007,729.8000000000003L521.9000000000007,727.0000000000003L528.3000000000006,719.9000000000003L537.7000000000006,715.4000000000003L550.8000000000006,722.0000000000003L557.4000000000007,716.1000000000004L564.6000000000007,714.3000000000004L572.2000000000007,723.2000000000004L578.1000000000007,728.7000000000004L586.6000000000007,722.0000000000003L590.9000000000007,721.8000000000003Z" stroke-width="1" stroke-linejoin="round" data-id="TWN1158" data-type="area" class="area" style="-webkit-tap-highlight-color: rgba(0, 0, 0, 0); stroke-linejoin: round; cursor: pointer;"></path><path fill="#7c7c7c" stroke="#ffffff" d="M383.8,668.3L383.2,669.5L380.9,667.5L379.2,663.3L379.5,662H380.2L381.09999999999997,663.2L381.79999999999995,665.1L383.9,667.3000000000001ZM384.3,640.6999999999999L381.40000000000003,647.4999999999999L385.3,634.1999999999999L385.90000000000003,634.3ZM387.8,627.9L391.3,618L391.8,617.9L392,619.8ZM394.1,605.4L393.70000000000005,607.8L394.30000000000007,597.1999999999999L394.80000000000007,597.4ZM543.6,616.9L541.3000000000001,623.5L530.9000000000001,638.6L520.9000000000001,655.6L514.4000000000001,664L507.0000000000001,671.2L500.5000000000001,676.6L494.4000000000001,683L489.1000000000001,690.1L486.1000000000001,695.3000000000001L483.7000000000001,700.8000000000001L477.4000000000001,705.2L470.9000000000001,707.8000000000001L467.4000000000001,710.4000000000001L463.2000000000001,711.9000000000001L454.8000000000001,710.9000000000001L446.60000000000014,711.8000000000001L430.90000000000015,709.6L426.10000000000014,707.1L422.20000000000016,698.5L422.00000000000017,698L415.90000000000015,701.7L414.90000000000015,695.4000000000001L413.10000000000014,691.8000000000001L409.20000000000016,687.9000000000001L413.90000000000015,684.5000000000001L416.60000000000014,678.4000000000001L415.5000000000001,673.2L409.2000000000001,672.3000000000001L408.0000000000001,674.1L406.9000000000001,677.5L405.1000000000001,680.2L401.80000000000007,680.1L400.50000000000006,677.8000000000001L401.00000000000006,670.8000000000001L400.20000000000005,668.4000000000001L396.1,666.6000000000001L393.8,668.7000000000002L392,671.6000000000001L389.2,672.3000000000002L386.3,669.8000000000002L385.6,666.3000000000002L386.3,662.9000000000002L387.40000000000003,660.6000000000003L390.40000000000003,659.0000000000002L394.1,658.5000000000002L397.20000000000005,657.5000000000002L398.20000000000005,654.5000000000002L396.80000000000007,653.0000000000002L387.4000000000001,650.6000000000003V648.7000000000003L395.30000000000007,648.6000000000003L394.50000000000006,646.0000000000002L390.20000000000005,642.3000000000002L387.40000000000003,639.1000000000001L388.1,635.1000000000001L390.6,633.6000000000001L393.3,632.7000000000002L394.7,630.2000000000002L393.9,626.3000000000002L392.5,623.1000000000001L393.4,620.1000000000001L394.79999999999995,616.4000000000001L397.09999999999997,613.8000000000001L396.59999999999997,611.5000000000001L397.09999999999997,609.2000000000002L400.4,600.2000000000002L402,598.5000000000001L404.6,597.9000000000001L400.90000000000003,595.4000000000001L402.50000000000006,591.3000000000001L407.70000000000005,593.3000000000001L416.6,594.6L423.8,596.4L430,593.6L432.5,588.7L438.3,585.1L444.90000000000003,580L449.6,575.2L455.70000000000005,570.6L463.50000000000006,567.1L478.70000000000005,564.3000000000001L487.20000000000005,563.8000000000001L494.40000000000003,566.2L498.40000000000003,568.6L500.50000000000006,572.8000000000001L502.20000000000005,577.9000000000001L512.1,588.0000000000001L513.1,595.5000000000001L511.3,609.7000000000002L512.9,614.3000000000002L517.4,617.8000000000002H521.1999999999999L526.4999999999999,615.4000000000002L531.4999999999999,614.8000000000002L535.1999999999999,615.9000000000002Z" stroke-width="1" stroke-linejoin="round" data-id="TWN1160" data-type="area" class="area" style="-webkit-tap-highlight-color: rgba(0, 0, 0, 0); stroke-linejoin: round; cursor: pointer;"></path><path fill="#7c7c7c" stroke="#ffffff" d="M624.3,189L624.0999999999999,189.2L619.4999999999999,190.29999999999998L615.0999999999999,188.6L612.3999999999999,184.79999999999998L608.0999999999999,182.2L601.1999999999999,179.5L602.4,175.4L607.9,164L610.1,161L610.8000000000001,159.5V157.8L610.1,155.9L609,153.70000000000002L610.5,150.70000000000002L612.3,148.9L620.5999999999999,152.5L635.6999999999999,157.3L641.0999999999999,160.10000000000002L644.8999999999999,164.00000000000003L646.7999999999998,167.70000000000002L645.7999999999998,171.3L643.3999999999999,172.70000000000002L638.2999999999998,173.60000000000002L632.3999999999999,176.00000000000003L628.9999999999999,180.30000000000004L626.6999999999999,185.90000000000003Z" stroke-width="1" stroke-linejoin="round" data-id="TWN1161" data-type="area" class="area" style="-webkit-tap-highlight-color: rgba(0, 0, 0, 0); stroke-linejoin: round; cursor: pointer;"></path><path fill="#7c7c7c" stroke="#ffffff" d="M743.1,223.6L740.8000000000001,230.1L739.4000000000001,234.79999999999998L740.0000000000001,239.2L736.2000000000002,245L722.2000000000002,259.2L717.9000000000002,269.7L715.1000000000003,268.9L704.5000000000002,269.9L703.7000000000003,270.5L703.1000000000003,265.6L698.5000000000002,257.8L695.2000000000003,254.5L693.9000000000003,250.1L688.9000000000003,246.1L676.4000000000003,249.29999999999998L671.6000000000004,248.79999999999998L664.8000000000004,249.29999999999998L657.1000000000004,251.39999999999998L653.0000000000003,250.39999999999998L653.9000000000003,245.29999999999998L655.2000000000003,240.7L654.2000000000003,236.7L653.2000000000003,233.79999999999998L654.2000000000003,230.7L655.0000000000002,227.2L655.3000000000002,223.29999999999998L654.6000000000001,218.1L650.7000000000002,214.7L638.6000000000001,209L632.6000000000001,204.5L628.7000000000002,200.1L624.3000000000002,189L626.7000000000002,185.9L629.0000000000001,180.3L632.4000000000001,176L638.3000000000001,173.6L643.4000000000001,172.7L645.8000000000001,171.29999999999998L646.8000000000001,167.7L644.9000000000001,164L641.1000000000001,160.1L635.7000000000002,157.29999999999998L620.6000000000001,152.49999999999997L612.3000000000002,148.89999999999998L613.8000000000002,146.59999999999997L614.4000000000002,142.69999999999996L615.3000000000002,139.79999999999995L617.3000000000002,136.89999999999995L620.0000000000002,134.79999999999995L622.5000000000002,133.89999999999995L622.3000000000002,132.69999999999996L623.0000000000002,129.79999999999995L625.2000000000003,123.69999999999996L627.3000000000003,120.39999999999996L630.4000000000003,121.49999999999996L644.1000000000004,120.49999999999996L648.7000000000004,123.59999999999995L652.7000000000004,132.29999999999995L657.7000000000004,134.29999999999995L662.0000000000003,135.49999999999994L666.1000000000004,137.49999999999994L672.9000000000003,139.69999999999993L676.5000000000003,143.89999999999992L675.4000000000003,149.69999999999993L678.9000000000003,153.39999999999992L685.4000000000003,155.49999999999991L689.6000000000004,158.5999999999999L692.7000000000004,161.6999999999999L696.5000000000003,162.3999999999999L700.4000000000003,162.09999999999988L703.8000000000003,165.59999999999988L706.4000000000003,170.09999999999988L710.7000000000003,172.29999999999987L714.1000000000003,174.89999999999986L714.5000000000002,179.89999999999986L716.1000000000003,187.19999999999987L714.2000000000003,194.9999999999999L709.6000000000003,201.4999999999999L710.1000000000003,205.7999999999999L715.3000000000003,209.6999999999999L721.5000000000003,213.49999999999991L727.0000000000003,214.39999999999992L731.0000000000003,217.29999999999993L738.3000000000003,221.39999999999992Z" stroke-width="1" stroke-linejoin="round" data-id="TWN1162" data-type="area" class="area" style="-webkit-tap-highlight-color: rgba(0, 0, 0, 0); stroke-linejoin: round; cursor: pointer;"></path><path fill="#7c7c7c" stroke="#ffffff" d="M882.4,148.9L884.5,149.4L886.1,151.6L885.4,153.9L881.6,153.8L880.2,153L878.5,150.3L879.4,150.60000000000002ZM835.4,301.5H834.3L823.1999999999999,299.8L804.6999999999999,288.7L800.9,289.59999999999997L798.5,295.59999999999997L793.6,300.09999999999997H787.1L778.8000000000001,296.9L763.8000000000001,293.09999999999997L757.3000000000001,289.99999999999994L754.8000000000001,287.8999999999999L748.9000000000001,283.19999999999993H744.0000000000001L739.3000000000001,285.49999999999994L735.3000000000001,286.09999999999997L731.6,283.59999999999997L727.2,280.99999999999994L722.3000000000001,279.99999999999994L720.9000000000001,276.19999999999993L721.5000000000001,270.69999999999993L717.9000000000001,269.69999999999993L722.2,259.19999999999993L736.2,244.99999999999994L740,239.19999999999993L739.4,234.79999999999993L740.8,230.09999999999994L743.0999999999999,223.59999999999994L743.5999999999999,222.09999999999994L747.4999999999999,220.49999999999994L750.7999999999998,221.09999999999994L754.1999999999998,219.79999999999993L756.3999999999999,215.99999999999991L753.2999999999998,203.5999999999999L758.6999999999998,199.6999999999999L761.7999999999998,198.7999999999999L767.4999999999999,197.1999999999999L772.3999999999999,195.3999999999999L776.1999999999998,192.09999999999988L781.1999999999998,188.59999999999988L787.7999999999998,185.3999999999999L791.6999999999998,182.59999999999988L791.2999999999998,180.59999999999988L790.2999999999998,177.3999999999999L790.0999999999998,173.1999999999999L792.0999999999998,168.2999999999999L796.7999999999998,164.2999999999999L800.5999999999998,161.9999999999999L813.5999999999998,156.69999999999987L827.0999999999998,148.59999999999988L833.2999999999998,146.69999999999987L838.2999999999998,143.09999999999988L841.3999999999999,138.09999999999988L844.6999999999998,133.9999999999999L848.3999999999999,131.9999999999999L851.8999999999999,130.7999999999999L856.4999999999999,127.89999999999989L858.0999999999999,124.0999999999999L855.5999999999999,120.4999999999999L856.9999999999999,117.5999999999999L868.1999999999999,115.2999999999999L871.9,112.7999999999999L880.3,108.39999999999989L886.1999999999999,107.0999999999999L889.4999999999999,108.9999999999999L890.2999999999998,110.0999999999999L878.2999999999998,116.0999999999999L872.7999999999998,120.7999999999999L854.0999999999998,143.5999999999999L851.1999999999998,148.39999999999992L848.8999999999999,155.19999999999993L847.2999999999998,162.89999999999992L846.7999999999998,170.49999999999991L847.0999999999998,177.89999999999992L850.3999999999997,193.39999999999992L850.1999999999997,197.39999999999992L848.6999999999997,201.29999999999993L848.8999999999997,209.39999999999992L852.3999999999997,215.69999999999993L858.8999999999997,219.69999999999993L866.4999999999998,221.09999999999994V222.89999999999995L863.2999999999997,222.59999999999994L860.1999999999997,222.89999999999995L857.5999999999997,223.69999999999996L855.6999999999997,225.09999999999997L858.3999999999997,230.09999999999997L859.6999999999997,236.59999999999997L858.8999999999997,242.19999999999996L852.8999999999997,245.59999999999997L852.4999999999998,248.09999999999997L853.1999999999998,251.09999999999997L854.8999999999999,253.79999999999995L855.4999999999999,256.59999999999997L852.9999999999999,258.99999999999994L846.7999999999998,262.59999999999997L839.7999999999998,270.59999999999997L839.4999999999999,273.79999999999995L839.9999999999999,280.79999999999995L838.7999999999998,283.4L837.4999999999999,285.7L836.6999999999999,288.9L836.1999999999999,295.29999999999995L835.5999999999999,296.9L834.5999999999999,298.2L834.0999999999999,299.59999999999997Z" stroke-width="1" stroke-linejoin="round" data-id="TWN1163" data-type="area" class="area" style="-webkit-tap-highlight-color: rgba(0, 0, 0, 0); stroke-linejoin: round; cursor: pointer;"></path><path fill="#7c7c7c" stroke="#ffffff" d="M834.8,65L834.5,76.9L834.7,79.9L838.4000000000001,83.80000000000001L838.0000000000001,86.30000000000001L835.5000000000001,88.10000000000001L831.5000000000001,89.60000000000001L826.4000000000001,89.00000000000001L815.8000000000001,84.60000000000001L812.8000000000001,82.4L809.1,79L806.3000000000001,75.5L804.6,72L801.7,68.3L801.1,65.39999999999999L804.3000000000001,63.19999999999999L811.5000000000001,60.09999999999999L815.9000000000001,57.19999999999999L817.3000000000001,58.09999999999999L819.7,60.79999999999999L823.6,62.19999999999999Z" stroke-width="1" stroke-linejoin="round" data-id="TWN1164" data-type="area" class="area" style="-webkit-tap-highlight-color: rgba(0, 0, 0, 0); stroke-linejoin: round; cursor: pointer;"></path><path fill="#7c7c7c" stroke="#ffffff" d="M624.3,189L628.6999999999999,200.1L632.5999999999999,204.5L638.5999999999999,209L650.6999999999999,214.7L654.5999999999999,218.1L655.3,223.29999999999998L655,227.2L654.2,230.7L653.2,233.79999999999998L654.2,236.7L655.2,240.7L653.9000000000001,245.29999999999998L653.0000000000001,250.39999999999998L657.1000000000001,251.39999999999998L664.8000000000002,249.29999999999998L671.6000000000001,248.79999999999998L676.4000000000001,249.29999999999998L688.9000000000001,246.1L693.9000000000001,250.1L695.2,254.5L698.5,257.8L703.1,265.6L703.7,270.5L700,273.1L698.2,278.70000000000005L693.3000000000001,280.70000000000005L688.0000000000001,280.6L683.8000000000001,283.6L679.2,288L673.3000000000001,291.2L661.7,300.4L654.9000000000001,303.29999999999995L646.0000000000001,307.99999999999994L640.6000000000001,305.8999999999999L635.6000000000001,300.2999999999999L629.6000000000001,297.8999999999999L619.7000000000002,297.0999999999999L614.2000000000002,300.3999999999999L613.3000000000002,307.7999999999999L608.1000000000001,310.5999999999999L596.0000000000001,311.2999999999999L584.4000000000001,304.5999999999999L577.8000000000001,303.3999999999999L570.5000000000001,299.7999999999999L555.4000000000001,288.6999999999999L549.1000000000001,283.1999999999999L544.4000000000001,278.1999999999999L535.2,263.89999999999986L542.4000000000001,255.79999999999987L544.3000000000001,251.79999999999987L545.2,245.19999999999987L547.4000000000001,239.59999999999988L553.3000000000001,229.19999999999987L554.9000000000001,222.89999999999986L556.4000000000001,220.19999999999987L563.2,218.19999999999987L565.1,216.09999999999988L566.2,213.4999999999999L567.6,210.9999999999999L571.8000000000001,206.69999999999987L576.4000000000001,203.29999999999987L582.0000000000001,201.79999999999987L589.1000000000001,203.09999999999988L588.2000000000002,197.69999999999987L590.9000000000002,193.9999999999999L594.6000000000003,190.19999999999987L596.5000000000002,184.4999999999999L597.3000000000002,182.59999999999988L600.9000000000002,180.79999999999987L601.2000000000002,179.49999999999986L608.1000000000001,182.19999999999985L612.4000000000001,184.79999999999984L615.1000000000001,188.59999999999985L619.5000000000001,190.29999999999984L624.1000000000001,189.19999999999985Z" stroke-width="1" stroke-linejoin="round" data-id="TWN1165" data-type="area" class="area" style="-webkit-tap-highlight-color: rgba(0, 0, 0, 0); stroke-linejoin: round; cursor: pointer;"></path><path fill="#7c7c7c" stroke="#ffffff" d="M797.4,113.2L793.1999999999999,114.9L787.4,114.80000000000001L782.6,113.80000000000001L778.9,110.50000000000001L775.1,106.20000000000002L769.3000000000001,101.60000000000002L765.4000000000001,94.90000000000002L766.9000000000001,87.50000000000001L765.7,81.20000000000002L760,75.70000000000002L756.2,71.50000000000001L757.8000000000001,68.50000000000001L759.6,66.10000000000001L761.7,61.50000000000001L765.3000000000001,57.50000000000001L776.2,51.10000000000001L779.1,48.60000000000001L783.1,46.60000000000001L786.9,47.80000000000001L789,50.000000000000014L788.5,53.600000000000016L788.9,57.100000000000016L792.1,63.90000000000001L794.6,73.9L798.5,77.4L800.1,81.80000000000001L798.5,88.4L798.6,93.5L803.2,96.1L807,99.3L805,103.6Z" stroke-width="1" stroke-linejoin="round" data-id="TWN1166" data-type="area" class="area" style="-webkit-tap-highlight-color: rgba(0, 0, 0, 0); stroke-linejoin: round; cursor: pointer;"></path><path fill="#7c7c7c" stroke="#ffffff" d="M815.9,57.2L811.5,60.1L804.3,63.2L801.0999999999999,65.4L801.6999999999999,68.30000000000001L804.5999999999999,72.00000000000001L806.3,75.50000000000001L809.0999999999999,79.00000000000001L812.8,82.40000000000002L815.8,84.60000000000002L826.4,89.00000000000003L831.5,89.60000000000002L835.5,88.10000000000002L838,86.30000000000003L838.4,83.80000000000003L834.6999999999999,79.90000000000002L834.4999999999999,76.90000000000002L834.7999999999998,65.00000000000001L869.3999999999999,73.40000000000002L872.5999999999999,75.40000000000002L870.9999999999999,79.10000000000002L870.5999999999999,82.00000000000003L871.3,87.20000000000003L873.6999999999999,95.90000000000003L876.3,100.00000000000003L878.5,100.90000000000003L885.5,99.90000000000003L889.1,100.30000000000004L893.3000000000001,101.40000000000003L897.0000000000001,103.30000000000004L899.0000000000001,105.80000000000004L890.3000000000001,110.10000000000004L889.5000000000001,109.00000000000004L886.2000000000002,107.10000000000004L880.3000000000002,108.40000000000003L871.9000000000002,112.80000000000004L868.2000000000002,115.30000000000004L857.0000000000001,117.60000000000004L855.6000000000001,120.50000000000004L858.1000000000001,124.10000000000004L856.5000000000001,127.90000000000003L851.9000000000001,130.80000000000004L848.4000000000001,132.00000000000003L844.7,134.00000000000003L841.4000000000001,138.10000000000002L838.3000000000001,143.10000000000002L833.3000000000001,146.70000000000002L827.1,148.60000000000002L813.6,156.70000000000002L800.6,162.00000000000003L796.8000000000001,164.30000000000004L792.1,168.30000000000004L790.1,173.20000000000005L790.3000000000001,177.40000000000003L791.3000000000001,180.60000000000002L791.7,182.60000000000002L787.8000000000001,185.40000000000003L781.2,188.60000000000002L776.2,192.10000000000002L772.4000000000001,195.40000000000003L767.5000000000001,197.20000000000005L761.8000000000001,198.80000000000004L759.3000000000001,193.40000000000003L750.4000000000001,184.90000000000003L749.0000000000001,179.30000000000004L748.2000000000002,174.10000000000005L751.3000000000002,170.40000000000006L752.8000000000002,165.10000000000005L744.3000000000002,152.80000000000004L739.3000000000002,150.80000000000004L731.9000000000002,151.20000000000005L726.8000000000002,148.30000000000004L728.1000000000001,141.60000000000005L727.1000000000001,136.50000000000006L721.7000000000002,131.40000000000006L720.7000000000002,126.30000000000007L721.7000000000002,120.50000000000007L721.5000000000001,114.30000000000007L725.2000000000002,110.30000000000007L738.3000000000002,106.40000000000006L741.6000000000001,103.00000000000006L742.6000000000001,98.80000000000005L742.1000000000001,94.70000000000006L737.0000000000001,87.20000000000006L732.8000000000001,85.00000000000006L728.7,84.00000000000006L725.5,81.20000000000006L720.8,78.10000000000007L714.5,75.10000000000007L710.3,70.50000000000007L721.5,68.40000000000008L726.3,66.60000000000008L732.4,61.40000000000008L734.3,60.50000000000008L736.5,60.10000000000008H739.6L743.1,61.20000000000008L745,63.900000000000084L746.2,66.60000000000008L747.7,68.20000000000007L751.2,66.80000000000007L747.6,61.100000000000065L741.8000000000001,55.20000000000007L738.7,53.30000000000007L739.6,50.600000000000065L741.4,49.100000000000065L743.3,48.20000000000007L744.0999999999999,47.20000000000007L746.1999999999999,42.100000000000065L749.4,36.20000000000007L756,30.300000000000068L765.6,25.40000000000007L776.6,22.90000000000007L787.4,24.10000000000007L791.9,27.500000000000068L801.9,41.70000000000007L805.5,49.100000000000065L806.7,48.600000000000065L809.4000000000001,47.90000000000006L812.4000000000001,47.500000000000064L814.6000000000001,48.100000000000065L814.5000000000001,49.000000000000064L813.4000000000001,50.30000000000006L812.4000000000001,52.10000000000006L812.5000000000001,54.30000000000006L813.6000000000001,55.500000000000064ZM797.4,113.2L805,103.60000000000001L807,99.30000000000001L803.2,96.10000000000001L798.6,93.50000000000001L798.5,88.40000000000002L800.1,81.80000000000003L798.5,77.40000000000002L794.6,73.90000000000002L792.1,63.90000000000002L788.9,57.10000000000002L788.5,53.60000000000002L789,50.00000000000002L786.9,47.80000000000002L783.1,46.600000000000016L779.1,48.600000000000016L776.2,51.100000000000016L765.3000000000001,57.500000000000014L761.7,61.500000000000014L759.6,66.10000000000001L757.8000000000001,68.50000000000001L756.2,71.50000000000001L760,75.70000000000002L765.7,81.20000000000002L766.9000000000001,87.50000000000001L765.4000000000001,94.90000000000002L769.3000000000001,101.60000000000002L775.1,106.20000000000002L778.9,110.50000000000001L782.6,113.80000000000001L787.4,114.80000000000001L793.1999999999999,114.9Z" stroke-width="1" stroke-linejoin="round" data-id="TWN1167" data-type="area" class="area" style="-webkit-tap-highlight-color: rgba(0, 0, 0, 0); stroke-linejoin: round; cursor: pointer;"></path><path fill="#7c7c7c" stroke="#ffffff" d="M761.8,198.8L758.6999999999999,199.70000000000002L753.3,203.60000000000002L756.4,216.00000000000003L754.1999999999999,219.80000000000004L750.8,221.10000000000005L747.5,220.50000000000006L743.6,222.10000000000005L743.1,223.60000000000005L738.3000000000001,221.40000000000006L731.0000000000001,217.30000000000007L727.0000000000001,214.40000000000006L721.5000000000001,213.50000000000006L715.3000000000001,209.70000000000005L710.1,205.80000000000004L709.6,201.50000000000003L714.2,195.00000000000003L716.1,187.20000000000002L714.5,179.9L714.1,174.9L710.7,172.3L706.4000000000001,170.10000000000002L703.8000000000001,165.60000000000002L700.4000000000001,162.10000000000002L696.5000000000001,162.40000000000003L692.7000000000002,161.70000000000005L689.6000000000001,158.60000000000005L685.4000000000001,155.50000000000006L678.9000000000001,153.40000000000006L675.4000000000001,149.70000000000007L676.5000000000001,143.90000000000006L672.9000000000001,139.70000000000007L666.1000000000001,137.50000000000009L662.0000000000001,135.50000000000009L657.7000000000002,134.3000000000001L652.7000000000002,132.3000000000001L648.7000000000002,123.6000000000001L644.1000000000001,120.5000000000001L630.4000000000001,121.5000000000001L627.3000000000001,120.4000000000001L636.2,106.2000000000001L643.1,97.9000000000001L650.3000000000001,91.80000000000011L668.7,85.70000000000012L673,83.00000000000011L676.7,79.80000000000011L681.2,77.30000000000011L690.2,74.10000000000011L710.3000000000001,70.50000000000011L714.5000000000001,75.10000000000011L720.8000000000001,78.10000000000011L725.5000000000001,81.2000000000001L728.7000000000002,84.0000000000001L732.8000000000002,85.0000000000001L737.0000000000002,87.2000000000001L742.1000000000003,94.7000000000001L742.6000000000003,98.8000000000001L741.6000000000003,103.0000000000001L738.3000000000003,106.4000000000001L725.2000000000003,110.30000000000011L721.5000000000002,114.30000000000011L721.7000000000003,120.50000000000011L720.7000000000003,126.30000000000011L721.7000000000003,131.40000000000012L727.1000000000003,136.5000000000001L728.1000000000003,141.6000000000001L726.8000000000003,148.3000000000001L731.9000000000003,151.2000000000001L739.3000000000003,150.8000000000001L744.3000000000003,152.8000000000001L752.8000000000003,165.1000000000001L751.3000000000003,170.40000000000012L748.2000000000003,174.1000000000001L749.0000000000002,179.3000000000001L750.4000000000002,184.9000000000001L759.3000000000002,193.4000000000001Z" stroke-width="1" stroke-linejoin="round" data-id="TWN1168" data-type="area" class="area" style="-webkit-tap-highlight-color: rgba(0, 0, 0, 0); stroke-linejoin: round; cursor: pointer;"></path><path fill="#7c7c7c" stroke="#ffffff" d="M547.2,389.6L547.3000000000001,393.20000000000005L543.0000000000001,394.80000000000007L541.8000000000001,397.70000000000005L542.3000000000001,401.70000000000005L540.3000000000001,406.30000000000007L538.7,411.70000000000005L538.6,417.40000000000003L537.4,424.00000000000006L536.5,437.40000000000003L538.6,443.70000000000005L542.2,447.00000000000006L546.1,448.40000000000003L551.7,451.3L550.7,454.8L546.9000000000001,456.3L544.4000000000001,458.6L542.0000000000001,460.20000000000005L541.0000000000001,460.90000000000003L529.0000000000001,458.50000000000006L523.2000000000002,458.6000000000001L511.00000000000017,452.6000000000001L491.3000000000002,450.30000000000007L479.70000000000016,445.9000000000001L473.10000000000014,444.1000000000001L465.5000000000001,443.7000000000001L443.5000000000001,446.3000000000001L435.9000000000001,441.90000000000015L436.7000000000001,440.50000000000017L438.3000000000001,433.40000000000015L439.5000000000001,430.40000000000015L446.60000000000014,423.60000000000014L448.60000000000014,420.8000000000001L451.3000000000001,413.0000000000001L455.5000000000001,405.3000000000001L461.2000000000001,389.2000000000001L463.9000000000001,384.5000000000001L466.9000000000001,381.5000000000001L469.4000000000001,379.8000000000001L471.6000000000001,378.7000000000001L473.2000000000001,377.3000000000001L473.8000000000001,374.3000000000001L475.0000000000001,371.5000000000001L480.10000000000014,367.5000000000001L481.3000000000001,364.5000000000001L481.90000000000015,354.4000000000001L482.8000000000001,351.6000000000001L485.5000000000001,349.00000000000006L496.8000000000001,335.80000000000007L502.60000000000014,337.70000000000005L506.60000000000014,341.20000000000005L509.3000000000001,347.50000000000006L510.3000000000001,355.1000000000001L514.8000000000002,360.50000000000006L526.7000000000002,364.00000000000006L531.0000000000001,367.6000000000001L534.2000000000002,372.6000000000001L536.2000000000002,376.6000000000001L536.3000000000002,380.6000000000001L537.5000000000002,383.9000000000001L541.8000000000002,384.7000000000001L547.2000000000002,388.2000000000001Z" stroke-width="1" stroke-linejoin="round" data-id="TWN1169" data-type="area" class="area" style="-webkit-tap-highlight-color: rgba(0, 0, 0, 0); stroke-linejoin: round; cursor: pointer;"></path><path fill="#7c7c7c" stroke="#ffffff" d="M399.6,593.2L397.8,594.6L397.40000000000003,593.5L399.8,590.4L400.7,588L401.8,586.5L402.40000000000003,587L402.50000000000006,588.1L401.1000000000001,590.1ZM401.8,580.6L401.1,579.9L403.1,576.1L404,575.7L403.5,577.6ZM406.7,571.6L406.59999999999997,567.2L407.09999999999997,567.6L407.2,570.5ZM408.09999999999997,561.9L407.29999999999995,563.5L406.79999999999995,561.5ZM406.79999999999995,555.8L406.29999999999995,557.0999999999999L404.99999999999994,554.9999999999999ZM376.99999999999994,556.8L373.79999999999995,558.4L377.59999999999997,553L391.49999999999994,538.9L402.09999999999997,525.4L404.59999999999997,524.6L395.59999999999997,539.3000000000001L391.09999999999997,543.8000000000001L388.2,547.3000000000001L384.4,551.1L381.4,553.2ZM566.5,505.69999999999993L572.6,506.3999999999999L579.4,508.99999999999994L583.5,510.19999999999993L588.6,512.9999999999999L588.3000000000001,518.2999999999998L585.3000000000001,523.3999999999999L586.5000000000001,528.1999999999998L589.2000000000002,534.6999999999998L589.6000000000001,540.5999999999998L590.7000000000002,544.3999999999997L598.3000000000002,545.7999999999997L623.9000000000002,545.9999999999998L624.8000000000002,546.1999999999998L606.3000000000002,555.5999999999998L597.8000000000002,562.3999999999997L594.2000000000002,569.1999999999997L590.0000000000001,574.1999999999997L582.3000000000001,578.4999999999997L574.4000000000001,584.5999999999997L569.9000000000001,589.9999999999997L557.6000000000001,597.2999999999996L551.8000000000002,597.8999999999996L544.9000000000002,597.1999999999996L541.3000000000002,600.6999999999996L541.2000000000002,605.6999999999996L542.6000000000001,610.1999999999996L543.6000000000001,616.8999999999996L535.2000000000002,615.8999999999996L531.5000000000001,614.7999999999996L526.5000000000001,615.3999999999996L521.2000000000002,617.7999999999996H517.4000000000002L512.9000000000002,614.2999999999996L511.3000000000002,609.6999999999996L513.1000000000001,595.4999999999995L512.1000000000001,587.9999999999995L502.20000000000016,577.8999999999995L500.50000000000017,572.7999999999995L498.40000000000015,568.5999999999995L494.40000000000015,566.1999999999995L487.20000000000016,563.7999999999995L478.70000000000016,564.2999999999995L463.50000000000017,567.0999999999995L455.70000000000016,570.5999999999995L449.60000000000014,575.1999999999995L444.90000000000015,579.9999999999994L438.3000000000001,585.0999999999995L432.5000000000001,588.6999999999995L430.0000000000001,593.5999999999995L423.8000000000001,596.3999999999994L416.60000000000014,594.5999999999995L407.70000000000016,593.2999999999995L402.50000000000017,591.2999999999995L406.3000000000002,590.9999999999995L409.6000000000002,589.5999999999996L411.00000000000017,590.0999999999996L410.1000000000002,586.8999999999995L407.9000000000002,588.4999999999995L406.1000000000002,587.9999999999995L403.6000000000002,587.8999999999995V584.5999999999996L406.00000000000017,578.9999999999995L409.70000000000016,578.6999999999996L415.10000000000014,578.7999999999996L411.40000000000015,568.2999999999996L407.3000000000001,560.2999999999996L409.2000000000001,556.5999999999996V554.6999999999996L406.1000000000001,553.1999999999996L406.50000000000006,551.3999999999996L408.30000000000007,549.3999999999996L409.20000000000005,546.7999999999996L413.20000000000005,541.5999999999996L404.70000000000005,542.0999999999996L404.50000000000006,533.3999999999995L416.1000000000001,531.9999999999995L424.4000000000001,536.6999999999996L430.5000000000001,536.7999999999996L434.4000000000001,533.5999999999996L436.1000000000001,528.6999999999996L438.2000000000001,525.6999999999996L443.5000000000001,524.8999999999996L450.5000000000001,519.1999999999996L454.9000000000001,516.7999999999996L458.7000000000001,512.9999999999997L475.0000000000001,503.5999999999997L482.2000000000001,501.5999999999997L494.8000000000001,499.29999999999967L501.7000000000001,498.8999999999997L507.0000000000001,503.4999999999997L512.0000000000001,509.3999999999997L524.6000000000001,513.9999999999997L528.3000000000002,513.4999999999997L536.6000000000001,511.0999999999997L541.3000000000002,514.4999999999997L543.7000000000002,518.3999999999996L550.0000000000001,517.7999999999996L561.7000000000002,515.3999999999996L565.7000000000002,514.0999999999997V510.6999999999997L566.0000000000001,505.6999999999997ZM473.8,536.4999999999999L470,540.5999999999999L470.9,546.1999999999999L477,548.5999999999999L484,553.0999999999999L491.3,554.8L498.1,552.0999999999999L502.6,551.4999999999999L505.6,549.2999999999998L503.1,542.4999999999999L500.6,538.4999999999999L496.5,536.2999999999998L490.9,534.1999999999998L483.09999999999997,534.8999999999999Z" stroke-width="1" stroke-linejoin="round" data-id="TWN1170" data-type="area" class="area" style="-webkit-tap-highlight-color: rgba(0, 0, 0, 0); stroke-linejoin: round; cursor: pointer;"></path><path fill="#7c7c7c" stroke="#ffffff" d="M473.8,536.5L483.1,534.9L490.90000000000003,534.1999999999999L496.50000000000006,536.3L500.6000000000001,538.5L503.1000000000001,542.5L505.6000000000001,549.3L502.6000000000001,551.5L498.1000000000001,552.1L491.30000000000007,554.8000000000001L484.00000000000006,553.1L477.00000000000006,548.6L470.90000000000003,546.2L470.00000000000006,540.6Z" stroke-width="1" stroke-linejoin="round" data-id="TWN1171" data-type="area" class="area" style="-webkit-tap-highlight-color: rgba(0, 0, 0, 0); stroke-linejoin: round; cursor: pointer;"></path><path fill="#7c7c7c" stroke="#ffffff" d="M835.4,301.5L836,302.3L837.6,305.2L837.8000000000001,306.3L836.4000000000001,308.7L830.6000000000001,314.4L824.4000000000001,323L819.7,326.7L818.3000000000001,328.7L819.0000000000001,330.8L818.1000000000001,332.3L811.5000000000001,337.40000000000003L809.0000000000001,339.8L806.2000000000002,345.8L803.3000000000002,358L795.9000000000002,368.9L794.4000000000002,373.29999999999995L794.6000000000003,377.99999999999994L796.4000000000002,383.19999999999993L797.9000000000002,385.49999999999994L799.2000000000002,386.49999999999994L800.0000000000001,387.8999999999999L800.1000000000001,391.0999999999999L799.0000000000001,394.69999999999993L795.3000000000001,400.49999999999994L794.6,403.99999999999994L794.2,410.3999999999999L791,426.69999999999993L784.6,443.69999999999993L776.6,483.79999999999995L771.8000000000001,493.59999999999997L760.8000000000001,557.6999999999999L757.3000000000001,556.6999999999999L746.5000000000001,561.9L742.6000000000001,567.3L744.3000000000002,574.1999999999999L744.9000000000002,581.0999999999999L741.3000000000002,587.9999999999999L737.9000000000002,593.1999999999999L735.2000000000002,599.8L732.8000000000002,608.1999999999999L729.1000000000001,615.9L724.3000000000002,629.1L721.2000000000002,635.2L721.3000000000002,641.9000000000001L720.4000000000002,648.1000000000001L713.9000000000002,651.8000000000002L705.7000000000002,650.7000000000002L694.0000000000001,641.0000000000001L684.8000000000001,625.0000000000001L679.1,623.5000000000001L672.8000000000001,622.6000000000001L667.8000000000001,617.8000000000002L661.7,614.9000000000002L653.9000000000001,612.1000000000003L648.9000000000001,604.0000000000002L647.7,596.6000000000003L647.4000000000001,594.1000000000003L644.6000000000001,586.5000000000002L638.3000000000002,581.3000000000002L632.7000000000002,577.7000000000002L631.7000000000002,573.7000000000002L633.1000000000001,570.5000000000001L638.7000000000002,568.1000000000001L641.7000000000002,563.1000000000001L639.8000000000002,557.3000000000002L645.8000000000002,553.8000000000002L648.9000000000002,551.0000000000002L647.2000000000002,544.8000000000002L648.7000000000002,542.1000000000001L650.2000000000002,538.1000000000001L655.4000000000002,534.2000000000002L662.8000000000002,532.6000000000001L670.2000000000002,532.3000000000002L675.5000000000001,527.6000000000001L676.8000000000001,519.1000000000001L680.8000000000001,513.9000000000001L688.4000000000001,511.1000000000001L692.9000000000001,508.00000000000006L694.5000000000001,502.90000000000003L697.7000000000002,490.3L698.9000000000002,481.90000000000003L698.0000000000002,474.70000000000005L696.8000000000002,469.30000000000007L693.6000000000001,465.20000000000005L691.5000000000001,461.20000000000005L697.2000000000002,451.80000000000007L697.4000000000002,448.1000000000001L699.9000000000002,441.1000000000001L703.8000000000002,432.6000000000001L706.8000000000002,423.80000000000007L708.4000000000002,413.9000000000001L709.0000000000002,406.30000000000007L707.2000000000003,401.80000000000007L705.2000000000003,398.50000000000006L707.5000000000002,390.90000000000003L712.6000000000003,380.20000000000005L720.6000000000003,369.80000000000007L720.9000000000002,365.9000000000001L719.4000000000002,361.4000000000001L714.2000000000002,358.0000000000001L711.3000000000002,354.9000000000001L711.1000000000001,345.0000000000001L714.8000000000002,342.10000000000014L721.4000000000002,339.90000000000015L726.6000000000003,337.50000000000017L726.4000000000002,333.8000000000002L725.0000000000002,327.6000000000002L727.8000000000002,325.6000000000002L729.0000000000002,323.50000000000017L732.4000000000002,321.8000000000002L735.5000000000002,318.00000000000017L736.8000000000002,312.90000000000015L739.8000000000002,307.90000000000015L747.3000000000002,303.20000000000016L749.7000000000002,297.00000000000017L750.1000000000001,292.8000000000002L754.8000000000002,287.9000000000002L757.3000000000002,290.0000000000002L763.8000000000002,293.10000000000025L778.8000000000002,296.90000000000026L787.1000000000001,300.10000000000025H793.6000000000001L798.5000000000001,295.60000000000025L800.9000000000001,289.60000000000025L804.7,288.7000000000003L823.2,299.8000000000003L834.3000000000001,301.5000000000003Z" stroke-width="1" stroke-linejoin="round" data-id="TWN1172" data-type="area" class="area" style="-webkit-tap-highlight-color: rgba(0, 0, 0, 0); stroke-linejoin: round; cursor: pointer;"></path><path fill="#7c7c7c" stroke="#ffffff" d="M725,327.6L726.4,333.8L726.6,337.5L721.4,339.9L714.8,342.09999999999997L711.0999999999999,344.99999999999994L711.3,354.8999999999999L714.1999999999999,357.99999999999994L719.4,361.3999999999999L720.9,365.8999999999999L720.6,369.7999999999999L712.6,380.1999999999999L707.5,390.89999999999986L705.2,398.4999999999999L707.2,401.7999999999999L709,406.2999999999999L708.4,413.8999999999999L706.8,423.7999999999999L703.8,432.5999999999999L699.9,441.0999999999999L697.4,448.0999999999999L697.1999999999999,451.7999999999999L691.4999999999999,461.1999999999999L693.5999999999999,465.1999999999999L696.8,469.2999999999999L698,474.6999999999999L698.9,481.89999999999986L697.6999999999999,490.29999999999984L694.4999999999999,502.89999999999986L692.8999999999999,507.9999999999999L688.3999999999999,511.0999999999999L680.7999999999998,513.8999999999999L676.7999999999998,519.0999999999999L675.4999999999999,527.5999999999999L670.1999999999999,532.3L662.8,532.5999999999999L655.4,534.1999999999999L650.1999999999999,538.0999999999999L648.6999999999999,542.0999999999999L647.1999999999999,544.8L648.9,551L645.8,553.8L639.8,557.3L639.0999999999999,555.3L634.8999999999999,549.4L629.0999999999999,547.1999999999999L624.8,546.1999999999999L623.9,545.9999999999999L598.3,545.7999999999998L590.6999999999999,544.3999999999999L589.5999999999999,540.5999999999999L589.1999999999999,534.6999999999999L586.4999999999999,528.1999999999999L585.2999999999998,523.4L588.2999999999998,518.3L588.5999999999998,513L583.4999999999998,510.2L579.3999999999997,509L572.5999999999998,506.4L566.4999999999998,505.7L563.8999999999997,502.2L555.6999999999997,503.09999999999997L548.8999999999997,505.09999999999997L543.0999999999998,502.59999999999997L539.0999999999998,497.9L539.9999999999998,492.2L541.8999999999997,487L540.8999999999997,479.3L541.8999999999997,472.1L543.8999999999997,467.40000000000003L541.9999999999998,460.20000000000005L544.3999999999997,458.6L546.8999999999997,456.3L550.6999999999997,454.8L551.6999999999997,451.3L546.0999999999997,448.40000000000003L542.1999999999997,447.00000000000006L538.5999999999997,443.70000000000005L536.4999999999997,437.40000000000003L537.3999999999996,424.00000000000006L538.5999999999997,417.40000000000003L538.6999999999997,411.70000000000005L540.2999999999997,406.30000000000007L542.2999999999997,401.70000000000005L541.7999999999997,397.70000000000005L542.9999999999998,394.80000000000007L547.2999999999997,393.20000000000005L547.1999999999997,389.6L551.4999999999997,389.8L569.3999999999996,392.3L573.5999999999997,391.7L578.5999999999997,386.9L586.1999999999997,372.5L589.8999999999997,364L596.2999999999997,361L606.3999999999997,362.4L612.3999999999997,362.2L618.1999999999997,354.5L621.1999999999997,352.6L630.0999999999997,359.3L633.5999999999997,358.40000000000003L636.1999999999997,352.90000000000003L640.8999999999997,349.00000000000006L647.4999999999998,349.1000000000001L652.4999999999998,347.2000000000001L660.3999999999997,339.6000000000001L665.4999999999998,336.7000000000001L669.8999999999997,335.9000000000001L678.6999999999997,331.2000000000001L684.8999999999997,331.0000000000001L691.1999999999997,330.0000000000001L702.2999999999997,325.60000000000014L706.8999999999997,325.3000000000001L711.5999999999998,326.3000000000001Z" stroke-width="1" stroke-linejoin="round" data-id="TWN1173" data-type="area" class="area" style="-webkit-tap-highlight-color: rgba(0, 0, 0, 0); stroke-linejoin: round; cursor: pointer;"></path><path fill="#7c7c7c" stroke="#ffffff" d="M703.7,270.5L704.5,269.9L715.1,268.9L717.9,269.7L721.5,270.7L720.9,276.2L722.3,280L727.1999999999999,281L731.5999999999999,283.6L735.3,286.1L739.3,285.5L744,283.2H748.9L754.8,287.9L750.0999999999999,292.79999999999995L749.6999999999999,296.99999999999994L747.3,303.19999999999993L739.8,307.8999999999999L736.8,312.8999999999999L735.5,317.99999999999994L732.4,321.79999999999995L729,323.49999999999994L727.8,325.59999999999997L725,327.59999999999997L711.6,326.29999999999995L706.9,325.29999999999995L702.3,325.59999999999997L691.1999999999999,329.99999999999994L684.9,330.99999999999994L678.6999999999999,331.19999999999993L669.9,335.8999999999999L665.5,336.69999999999993L660.4,339.5999999999999L652.5,347.19999999999993L647.5,349.0999999999999L640.9,348.9999999999999L636.1999999999999,352.89999999999986L633.5999999999999,358.39999999999986L630.0999999999999,359.29999999999984L621.1999999999999,352.59999999999985L618.1999999999999,354.49999999999983L612.4,362.1999999999998L606.4,362.3999999999998L596.3,360.99999999999983L589.9,363.99999999999983L586.1999999999999,372.49999999999983L578.5999999999999,386.8999999999998L573.5999999999999,391.6999999999998L569.3999999999999,392.29999999999984L551.4999999999999,389.79999999999984L547.1999999999999,389.59999999999985V388.1999999999999L541.8,384.6999999999999L537.5,383.89999999999986L536.3,380.59999999999985L536.1999999999999,376.59999999999985L534.1999999999999,372.59999999999985L530.9999999999999,367.59999999999985L526.6999999999999,363.99999999999983L514.8,360.49999999999983L510.29999999999995,355.09999999999985L509.29999999999995,347.49999999999983L506.59999999999997,341.1999999999998L502.59999999999997,337.6999999999998L496.79999999999995,335.79999999999984L497.4,334.99999999999983L498.2,331.6999999999998L501.5,328.99999999999983L503.7,322.49999999999983L506.4,310.1999999999998L515.6999999999999,294.0999999999998L518.4999999999999,284.1999999999998L521.8999999999999,278.6999999999998L535.1999999999998,263.8999999999998L544.3999999999999,278.1999999999998L549.0999999999999,283.1999999999998L555.3999999999999,288.6999999999998L570.4999999999999,299.79999999999984L577.7999999999998,303.39999999999986L584.3999999999999,304.59999999999985L595.9999999999999,311.29999999999984L608.0999999999999,310.59999999999985L613.3,307.79999999999984L614.1999999999999,300.39999999999986L619.6999999999999,297.09999999999985L629.5999999999999,297.89999999999986L635.5999999999999,300.29999999999984L640.5999999999999,305.89999999999986L645.9999999999999,307.9999999999999L654.8999999999999,303.2999999999999L661.6999999999998,300.3999999999999L673.2999999999998,291.19999999999993L679.1999999999998,287.99999999999994L683.7999999999998,283.59999999999997L687.9999999999999,280.59999999999997L693.2999999999998,280.7L698.1999999999998,278.7L699.9999999999998,273.09999999999997Z" stroke-width="1" stroke-linejoin="round" data-id="TWN1174" data-type="area" class="area" style="-webkit-tap-highlight-color: rgba(0, 0, 0, 0); stroke-linejoin: round; cursor: pointer;"></path><path fill="#7c7c7c" stroke="#ffffff" d="M542,460.2L543.9,467.4L541.9,472.09999999999997L540.9,479.29999999999995L541.9,486.99999999999994L540,492.19999999999993L539.1,497.8999999999999L543.1,502.5999999999999L548.9,505.0999999999999L555.6999999999999,503.0999999999999L563.9,502.19999999999993L566.5,505.69999999999993H566L565.7,510.69999999999993V514.0999999999999L561.7,515.3999999999999L550,517.7999999999998L543.7,518.3999999999999L541.3000000000001,514.4999999999999L536.6,511.0999999999999L528.3000000000001,513.4999999999999L524.6,513.9999999999999L512,509.39999999999986L507,503.4999999999999L501.7,498.89999999999986L494.8,499.29999999999984L482.2,501.59999999999985L475,503.59999999999985L458.7,512.9999999999999L454.9,516.7999999999998L450.5,519.1999999999998L443.5,524.8999999999999L438.2,525.6999999999998L436.09999999999997,528.6999999999998L434.4,533.5999999999998L430.5,536.7999999999998L424.4,536.6999999999998L416.09999999999997,531.9999999999998L404.49999999999994,533.3999999999997L409.09999999999997,528.1999999999997L408.9,511.7999999999997L409.59999999999997,499.4999999999997L412.4,489.6999999999997L416.7,481.9999999999997L418,471.9999999999997L420.3,463.1999999999997L421.6,460.1999999999997L427.70000000000005,452.0999999999997L428.80000000000007,449.29999999999967L429.50000000000006,447.79999999999967L435.1000000000001,443.49999999999966L435.9000000000001,441.89999999999964L443.5000000000001,446.2999999999996L465.5000000000001,443.6999999999996L473.10000000000014,444.09999999999957L479.70000000000016,445.8999999999996L491.3000000000002,450.29999999999956L511.00000000000017,452.59999999999957L523.2000000000002,458.59999999999957L529.0000000000001,458.49999999999955L541.0000000000001,460.8999999999995Z" stroke-width="1" stroke-linejoin="round" data-id="TWN1176" data-type="area" class="area" style="-webkit-tap-highlight-color: rgba(0, 0, 0, 0); stroke-linejoin: round; cursor: pointer;"></path><path fill="#7c7c7c" stroke="#ffffff" d="M789.2,963L783.7,964.7L776.4000000000001,961.8000000000001L769.6000000000001,957.0000000000001L765.7000000000002,953.3000000000001L766.9000000000002,950.6L766.8000000000002,948.1L765.8000000000002,945.7L764.1000000000001,943.6H783.6000000000001V945.4L782.3000000000002,948.9L781.9000000000002,951.8L782.8000000000002,954.3L787.5000000000002,957.8L789.5000000000002,960.3ZM765.2,785.4L765.1,786.5L761.7,786.1L761.3000000000001,785.5L758.6,784.5L755.8000000000001,779.6L754.4000000000001,775.3000000000001L755.0000000000001,774.7L765.0000000000001,774L766.1000000000001,774.6L766.9000000000001,776.6L766.1000000000001,780.5L765.2000000000002,782.1L764.8000000000002,783.8000000000001ZM602.1,899.5L597.6,899.8L587.4,895.0999999999999L582.8,890.1999999999999L579.5999999999999,884.3L578.9999999999999,878.1999999999999L579.0999999999999,872.4999999999999L575.9999999999999,868.0999999999999L572.5999999999999,866.3999999999999L569.8999999999999,862.4999999999999L570.3999999999999,857.9999999999999L572.4999999999999,854.0999999999999L577.7999999999998,850.8999999999999L580.2999999999998,847.0999999999999L575.6999999999998,841.4999999999999L573.0999999999998,836.4999999999999V831.0999999999999L571.9999999999998,823.9999999999999L569.9999999999998,817.8999999999999L568.7999999999997,811.3999999999999L569.5999999999997,796.6999999999998L572.5999999999997,789.1999999999998L576.2999999999997,782.5999999999998L578.6999999999997,775.9999999999998L584.0999999999997,771.4999999999998L591.6999999999997,769.8999999999997L596.4999999999997,767.1999999999997L606.2999999999996,763.0999999999997L608.2999999999996,758.0999999999997L608.3999999999996,752.8999999999996L611.1999999999996,739.0999999999997L605.6999999999996,735.4999999999997L600.2999999999996,734.1999999999997L599.5999999999996,729.2999999999997L596.0999999999996,722.6999999999997L599.9999999999995,722.1999999999997L598.7999999999995,717.2999999999997L592.5999999999995,710.8999999999997L589.5999999999995,706.2999999999997L588.2999999999995,698.1999999999997L590.5999999999995,688.3999999999997L599.0999999999995,681.1999999999997L603.3999999999994,675.2999999999997L603.4999999999994,664.0999999999997L606.4999999999994,650.8999999999996L604.3999999999994,640.9999999999997L605.1999999999994,634.0999999999997L612.5999999999993,630.0999999999997L615.2999999999994,625.1999999999997L612.9999999999994,619.1999999999997L613.8999999999994,613.4999999999997L621.6999999999994,608.3999999999996L625.6999999999994,604.4999999999997L632.0999999999993,600.3999999999996L647.6999999999994,596.5999999999997L648.8999999999994,603.9999999999997L653.8999999999994,612.0999999999997L661.6999999999994,614.8999999999996L667.7999999999994,617.7999999999996L672.7999999999994,622.5999999999996L679.0999999999993,623.4999999999995L684.7999999999994,624.9999999999995L693.9999999999994,640.9999999999995L705.6999999999995,650.6999999999996L713.8999999999995,651.7999999999996L720.3999999999995,648.0999999999996L721.2999999999995,641.8999999999995L721.1999999999995,635.1999999999995L724.2999999999995,629.0999999999995L729.0999999999995,615.8999999999994L732.7999999999995,608.1999999999994L735.1999999999995,599.7999999999994L737.8999999999995,593.1999999999994L741.2999999999995,587.9999999999993L744.8999999999995,581.0999999999993L744.2999999999995,574.1999999999994L742.5999999999995,567.2999999999994L746.4999999999994,561.8999999999994L757.2999999999994,556.6999999999994L760.7999999999994,557.6999999999994L756.1999999999994,584.0999999999993L753.9999999999993,588.9999999999993L746.8999999999993,598.3999999999993L744.2999999999993,603.2999999999993L742.1999999999992,609.3999999999993L740.6999999999992,620.7999999999993L740.8999999999993,630.9999999999993L739.8999999999993,640.6999999999994L734.9999999999993,650.5999999999993L732.8999999999993,652.6999999999994L728.1999999999992,656.1999999999994L725.9999999999992,658.3999999999994L724.9999999999992,660.6999999999994L723.2999999999992,666.4999999999993L718.4999999999992,674.8999999999993L715.5999999999992,687.9999999999993L713.4999999999992,693.8999999999993L703.1999999999992,708.6999999999992L701.8999999999993,711.3999999999993L687.9999999999993,723.1999999999992L684.6999999999994,726.9999999999992L684.2999999999994,729.6999999999992L684.8999999999994,735.8999999999993L684.6999999999994,738.6999999999992L683.4999999999993,741.8999999999993L681.2999999999993,745.3999999999993L676.5999999999992,751.4999999999993L671.8999999999992,755.9999999999993L655.7999999999992,766.6999999999994L644.9999999999992,778.5999999999993L642.2999999999992,779.9999999999993L640.1999999999991,782.6999999999994L634.9999999999991,796.1999999999994L632.3999999999991,801.1999999999994L624.3999999999991,811.1999999999994L621.0999999999991,817.1999999999994L619.1999999999991,829.4999999999993L614.3999999999992,846.2999999999993L604.8999999999992,862.9999999999993L603.4999999999992,868.6999999999994L601.7999999999992,884.7999999999994Z" stroke-width="1" stroke-linejoin="round" data-id="TWN1177" data-type="area" class="area" style="-webkit-tap-highlight-color: rgba(0, 0, 0, 0); stroke-linejoin: round; cursor: pointer;"></path><path fill="#7c7c7c" stroke="#ffffff" d="M220.7,626.5L218.89999999999998,627.4L217.59999999999997,625.9L216.09999999999997,621.1999999999999L217.09999999999997,619.9999999999999L220.89999999999998,618.6999999999999L223.59999999999997,619.4L223.69999999999996,621.5L223.49999999999997,623.1L222.29999999999998,624.3000000000001ZM219.5,614.5L217.8,617.6L215.60000000000002,617L213.60000000000002,614.5L213.3,612L214.5,610.9L217.7,611.4ZM268.3,611.3L267.90000000000003,611.4L266.70000000000005,609.9L267.00000000000006,609.3L269.50000000000006,609.0999999999999L270.30000000000007,611.0999999999999ZM282.3,606.6999999999999L282.6,606.9H284.90000000000003V608.1999999999999L283.8,609.6999999999999L283.1,611.4999999999999L282,608.6999999999999ZM248.8,577.0999999999999L247.10000000000002,577.1999999999999L244.10000000000002,578.9999999999999L243.70000000000002,578.5999999999999L244.10000000000002,577.3L245.20000000000002,575.8L245.9,575.1999999999999L247.5,574.9L249,575.8ZM240.4,570.3999999999999L240.5,572.6999999999998L241,574.2999999999998L242.4,575.4999999999999L241.8,577.0999999999999L240.60000000000002,578.3L241.20000000000002,580.1999999999999L239.70000000000002,580.8L236.60000000000002,580.5L235.00000000000003,579.8L236.40000000000003,576.6999999999999L236.20000000000005,572.4999999999999L235.30000000000004,573.0999999999999L233.30000000000004,573.6999999999999L232.70000000000005,571.4L234.80000000000004,566.3L236.40000000000003,566L239.10000000000002,569.6ZM190.9,564.6999999999998L193.3,565.2999999999998V566.8999999999999L192.70000000000002,567.7999999999998L190.60000000000002,568.3999999999999L189.50000000000003,567.2999999999998ZM249.4,539.8999999999999L246.20000000000002,541.9999999999999L244.10000000000002,542.5999999999999L241.90000000000003,543.6999999999999L240.60000000000002,543.1999999999999L240.3,541.4L241,540.8L242.8,541.3L246.8,539.3ZM268.9,511.89999999999986L268.29999999999995,513.1999999999998L272.29999999999995,511.8999999999998L275.4,512.2999999999998L277.7,512.0999999999998L279.3,509.3999999999998L284,518.0999999999998L285.2,522.0999999999998L284.7,525.0999999999998L282.7,523.0999999999998L280.2,521.3999999999997L277.4,520.8999999999997L273.4,523.0999999999998L270.59999999999997,523.3999999999997L269.2,524.1999999999997L268.5,525.6999999999997L267.4,529.7999999999997L266.7,530.9999999999998L262,533.6999999999998L257.2,534.3999999999999L252.39999999999998,532.4999999999999L247.49999999999997,527.5999999999999L248.79999999999998,525.0999999999999L251.49999999999997,528.3L255.49999999999997,529.1999999999999L259.79999999999995,527.9999999999999L263.29999999999995,525.0999999999999L260.9,524.1999999999999L258.9,522.9999999999999L257.4,521.3999999999999L255.99999999999997,519.1999999999998L255.19999999999996,520.5999999999998L254.19999999999996,521.1999999999998L253.89999999999995,517.1999999999998L254.19999999999996,513.1999999999998H255.99999999999997L258.09999999999997,513.6999999999998L265.49999999999994,509.0999999999998L270.09999999999997,507.4999999999998ZM228.99999999999997,521.1999999999998H225.19999999999996L225.89999999999995,519.0999999999998L227.09999999999994,517.7999999999998L228.99999999999994,517.2999999999998L231.49999999999994,517.0999999999998L233.69999999999993,516.1999999999998L234.29999999999993,514.1999999999998L234.39999999999992,509.3999999999998L237.5999999999999,498.99999999999983L240.6999999999999,495.99999999999983L244.8999999999999,499.59999999999985L242.3999999999999,501.09999999999985L240.6999999999999,504.6999999999999L237.8999999999999,513.1999999999998L237.7999999999999,515.3999999999999L238.4999999999999,517.3999999999999L238.19999999999987,518.6999999999998L235.19999999999987,519.1999999999998L232.9999999999999,519.2999999999998L231.4999999999999,519.5999999999998L230.19999999999987,520.1999999999998ZM262.79999999999995,503.29999999999984L260.59999999999997,503.99999999999983L259.49999999999994,502.49999999999983L258.59999999999997,498.99999999999983L256.59999999999997,496.09999999999985L252.29999999999995,491.79999999999984L257.79999999999995,487.6999999999998L261.09999999999997,489.3999999999998L264.29999999999995,492.1999999999998L265.69999999999993,495.0999999999998L263.19999999999993,497.4999999999998L264.19999999999993,500.9999999999998ZM265.4,472.89999999999986L265.09999999999997,473.79999999999984L263.79999999999995,470.79999999999984L263.59999999999997,469.39999999999986L265.4,467.89999999999986L267,464.89999999999986L267.5,465.9999999999999L270,467.39999999999986L269.6,469.1999999999999L267.40000000000003,470.4999999999999Z" stroke-width="1" stroke-linejoin="round" data-id="TWN3414" data-type="area" class="area" style="-webkit-tap-highlight-color: rgba(0, 0, 0, 0); stroke-linejoin: round; cursor: pointer;"></path><path fill="#7c7c7c" stroke="#ffffff" d="M18.39,369.05L13.190000000000001,370.55L10.190000000000001,369.35L15.190000000000001,359.45000000000005L16.490000000000002,358.05000000000007L18.590000000000003,357.55000000000007L20.690000000000005,357.45000000000005L22.690000000000005,358.85L24.290000000000006,360.65000000000003V363.75000000000006L22.890000000000008,365.8500000000001L21.290000000000006,365.9500000000001L20.190000000000005,367.1500000000001L19.590000000000003,368.3500000000001ZM73.39,342.25L78.09,354.85L77.09,363.65000000000003L73.19,368.25000000000006L66.39,363.95000000000005L61.39,362.35L53.29,363.15000000000003L46.19,367.65000000000003L42.29,373.75000000000006L38.89,375.45000000000005L34.99,373.55000000000007L32.29,373.45000000000005L29.89,372.35L28.69,370.25L29.19,369.55L31.290000000000003,366.75L31.990000000000002,365.55L32.190000000000005,363.45L32.09,360.95L31.390000000000004,356.65L29.590000000000003,352.45L29.390000000000004,350.34999999999997L30.890000000000004,349.45L38.49,345.75L48.49,352.35L55.49,351.45000000000005L56.59,342.75000000000006L58.89,337.25000000000006L66.39,335.75000000000006ZM342.69,204.55L339.79,206.05L338.49,204.85000000000002L339.19,201.65000000000003L341.59,200.25000000000003L343.28999999999996,200.55000000000004L343.48999999999995,202.45000000000005Z" stroke-width="1" stroke-linejoin="round" data-id="TWN3415" data-type="area" class="area" style="-webkit-tap-highlight-color: rgba(0, 0, 0, 0); stroke-linejoin: round; cursor: pointer;"></path><path fill="#7c7c7c" stroke="#ffffff" d="M291.82,149.24L291.62,151.54000000000002L289.72,153.64000000000001L285.62,155.64000000000001L288.12,150.04000000000002L290.62,150.54000000000002L290.72,149.64000000000001ZM280.02,148.44L278.02,150.54L275.62,147.14L279.22,145.83999999999997L281.92,147.33999999999997ZM276.82,93.53999999999999L277.82,94.03999999999999L282.21999999999997,91.44H285.02V93.24L282.21999999999997,96.44L276.71999999999997,99.34L275.02,99.64L272.52,97.94L271.71999999999997,95.53999999999999L272.21999999999997,92.74L273.32,90.74L274.32,90.53999999999999L274.62,92.74ZM298.12,75.74L297.52,77.94L298.12,79.14L296.72,78.94L295.22,76.74L294.12,76.03999999999999L291.82,77.33999999999999L290.82,76.93999999999998L289.52,77.23999999999998L288.02,78.93999999999998L286.82,83.93999999999998L285.71999999999997,83.23999999999998L285.21999999999997,81.73999999999998L285.71999999999997,77.43999999999998L286.21999999999997,75.83999999999999L287.32,75.13999999999999L290.02,74.23999999999998L290.71999999999997,73.33999999999997L292.91999999999996,72.03999999999998L295.41999999999996,72.43999999999998L296.71999999999997,74.33999999999999ZM427.92,30.139999999999993L426.72,30.539999999999992L425.62,30.139999999999993L424.22,31.439999999999994L423.12,33.53999999999999L422.82,33.03999999999999L421.62,32.83999999999999L419.82,31.83999999999999L420.92,30.13999999999999L420.42,28.73999999999999L421.32,28.13999999999999L423.52,26.33999999999999L426.12,27.83999999999999L426.72,29.13999999999999Z" stroke-width="1" stroke-linejoin="round" data-id="TWN5128" data-type="area" class="area" style="-webkit-tap-highlight-color: rgba(0, 0, 0, 0); stroke-linejoin: round; cursor: pointer;"></path><circle cx="392.0528455286003" cy="470.03789325255" r="7.5" fill="#ffa000" stroke="#ffffff" stroke-width="1" stroke-linejoin="round" x="392.0528455286003" y="470.03789325255" data-id="外傘頂洲" data-type="plot" class="plot" style="-webkit-tap-highlight-color: rgba(0, 0, 0, 0); stroke-linejoin: round; cursor: pointer;"></circle><text x="374.5416563363267" y="470.03789325255" text-anchor="end" font-family="&quot;Arial&quot;" font-size="20px" stroke="none" fill="#b4b4b4" style="-webkit-tap-highlight-color: rgba(0, 0, 0, 0); text-anchor: end; font-family: Arial; font-size: 20px; font-weight: normal;" font-weight="normal" data-id="外傘頂洲" data-type="plot-text"><tspan dy="6.77226825255002" style="-webkit-tap-highlight-color: rgba(0, 0, 0, 0);">外傘頂洲, 23.5, 120</tspan></text><circle cx="483.2630081302268" cy="641.6220955848967" r="7.5" fill="#ffa000" stroke="#ffffff" stroke-width="1" stroke-linejoin="round" x="483.2630081302268" y="641.6220955848967" data-id="case1" data-type="plot" class="plot" style="-webkit-tap-highlight-color: rgba(0, 0, 0, 0); stroke-linejoin: round; cursor: pointer;"></circle><text x="465.7518189379532" y="641.6220955848967" text-anchor="end" font-family="&quot;Arial&quot;" font-size="20px" stroke="none" fill="#b4b4b4" style="-webkit-tap-highlight-color: rgba(0, 0, 0, 0); text-anchor: end; font-family: Arial; font-size: 20px; font-weight: normal;" font-weight="normal" data-id="case1" data-type="plot-text"><tspan dy="6.77053308489667" style="-webkit-tap-highlight-color: rgba(0, 0, 0, 0);">屏東運動休閒園區迫遷案</tspan></text><circle cx="642.2967479676299" cy="149.76059689205977" r="7.5" fill="#ffa000" stroke="#ffffff" stroke-width="1" stroke-linejoin="round" x="642.2967479676299" y="149.76059689205977" data-id="case2" data-type="plot" class="plot" style="-webkit-tap-highlight-color: rgba(0, 0, 0, 0); stroke-linejoin: round; cursor: pointer;"></circle><text x="642.2967479676299" y="132.26059689205977" text-anchor="middle" font-family="&quot;Arial&quot;" font-size="20px" stroke="none" fill="#b4b4b4" style="-webkit-tap-highlight-color: rgba(0, 0, 0, 0); text-anchor: middle; font-family: Arial; font-size: 20px; font-weight: normal;" font-weight="normal" data-id="case2" data-type="plot-text"><tspan dy="6.776221892059766" style="-webkit-tap-highlight-color: rgba(0, 0, 0, 0);">桃園航空城土地徵收案</tspan></text><circle cx="685.8012195123447" cy="161.40724965474146" r="7.5" fill="#ffa000" stroke="#ffffff" stroke-width="1" stroke-linejoin="round" x="685.8012195123447" y="161.40724965474146" data-id="case3" data-type="plot" class="plot" style="-webkit-tap-highlight-color: rgba(0, 0, 0, 0); stroke-linejoin: round; cursor: pointer;"></circle><text x="685.8012195123447" y="178.90724965474146" text-anchor="middle" font-family="&quot;Arial&quot;" font-size="20px" stroke="none" fill="#b4b4b4" style="-webkit-tap-highlight-color: rgba(0, 0, 0, 0); text-anchor: middle; font-family: Arial; font-size: 20px; font-weight: normal;" font-weight="normal" data-id="case3" data-type="plot-text"><tspan dy="6.766624654741463" style="-webkit-tap-highlight-color: rgba(0, 0, 0, 0);">大觀社區迫遷案</tspan></text></svg>